<svg width="18" height="18" viewBox="0 0 18 18" fill="none" xmlns="http://www.w3.org/2000/svg">
<path d="M8.99999 16.5C7.91736 15.6024 6.91387 14.6183 5.99999 13.5581C4.62857 11.9659 3 9.59468 3 7.33512C2.99941 6.18115 3.35101 5.05294 4.01031 4.09327C4.66961 3.13361 5.60697 2.38563 6.70376 1.944C7.80056 1.50237 9.00748 1.38694 10.1718 1.61231C11.3361 1.83769 12.4055 2.39374 13.2445 3.21009C13.8032 3.7507 14.246 4.39364 14.5473 5.1017C14.8486 5.80976 15.0025 6.56888 15 7.33512C15 9.59468 13.3714 11.9659 12 13.5581C11.0861 14.6183 10.0826 15.6024 8.99999 16.5ZM8.99999 4.83561C8.318 4.83561 7.66395 5.09895 7.18172 5.5677C6.69948 6.03645 6.42856 6.67221 6.42856 7.33512C6.42856 7.99803 6.69948 8.63379 7.18172 9.10254C7.66395 9.57129 8.318 9.83463 8.99999 9.83463C9.68197 9.83463 10.336 9.57129 10.8183 9.10254C11.3005 8.63379 11.5714 7.99803 11.5714 7.33512C11.5714 6.67221 11.3005 6.03645 10.8183 5.5677C10.336 5.09895 9.68197 4.83561 8.99999 4.83561Z" fill="black" stroke="black"/>
</svg>
