<svg width="20" height="20" viewBox="0 0 20 20" fill="none" xmlns="http://www.w3.org/2000/svg">
<path d="M9.99999 15C9.27824 14.4016 8.60925 13.7455 8 13.0387C7.08571 11.9773 6 10.3965 6 8.89008C5.9996 8.12076 6.234 7.36862 6.67354 6.72885C7.11307 6.08907 7.73798 5.59042 8.46918 5.296C9.20037 5.00158 10.005 4.92463 10.7812 5.07488C11.5574 5.22512 12.2703 5.59582 12.8297 6.14006C13.2021 6.50047 13.4973 6.92909 13.6982 7.40113C13.8991 7.87317 14.0017 8.37925 14 8.89008C14 10.3965 12.9143 11.9773 12 13.0387C11.3907 13.7455 10.7217 14.4016 9.99999 15ZM9.99999 7.22374C9.54533 7.22374 9.1093 7.3993 8.78781 7.7118C8.46632 8.0243 8.28571 8.44814 8.28571 8.89008C8.28571 9.33202 8.46632 9.75586 8.78781 10.0684C9.1093 10.3809 9.54533 10.5564 9.99999 10.5564C10.4546 10.5564 10.8907 10.3809 11.2122 10.0684C11.5337 9.75586 11.7143 9.33202 11.7143 8.89008C11.7143 8.44814 11.5337 8.0243 11.2122 7.7118C10.8907 7.3993 10.4546 7.22374 9.99999 7.22374Z" stroke="black" stroke-width="1.5"/>
<path d="M2 3.49593C2 2.66975 2.66975 2 3.49594 2H16.5041C17.3302 2 18 2.66975 18 3.49594V16.5041C18 17.3302 17.3302 18 16.5041 18H3.49593C2.66975 18 2 17.3302 2 16.5041V3.49593Z" stroke="black" stroke-width="1.5" stroke-linejoin="round"/>
</svg>
