<svg width="28" height="28" viewBox="0 0 28 28" fill="none" xmlns="http://www.w3.org/2000/svg">
<path d="M19.3957 15.9963C18.9992 16.3622 18.3921 16.3622 17.9955 15.9963C17.5057 15.5445 17.0427 15.0657 16.6087 14.5622C15.6546 13.4546 14.5217 11.805 14.5217 10.2332C14.5213 9.4304 14.7659 8.64556 15.2246 7.97797C15.6832 7.31038 16.3353 6.79004 17.0983 6.48282C17.8612 6.1756 18.7008 6.0953 19.5108 6.25208C20.3208 6.40886 21.0647 6.79568 21.6484 7.36358C22.037 7.73966 22.345 8.18692 22.5546 8.67948C22.7642 9.17204 22.8713 9.70013 22.8695 10.2332C22.8695 11.805 21.7366 13.4546 20.7826 14.5622C20.3486 15.0657 19.8855 15.5445 19.3957 15.9963ZM18.6956 8.49437C18.2212 8.49437 17.7662 8.67757 17.4307 9.00365C17.0953 9.32974 16.9068 9.77201 16.9068 10.2332C16.9068 10.6943 17.0953 11.1366 17.4307 11.4627C17.7662 11.7888 18.2212 11.972 18.6956 11.972C19.1701 11.972 19.625 11.7888 19.9605 11.4627C20.296 11.1366 20.4844 10.6943 20.4844 10.2332C20.4844 9.77201 20.296 9.32974 19.9605 9.00365C19.625 8.67757 19.1701 8.49437 18.6956 8.49437Z" stroke="#42A1E7" stroke-width="1.2"/>
<path d="M2 3.12195C2 2.50232 2.50231 2 3.12195 2H24.878C25.4977 2 26 2.50231 26 3.12195V24.878C26 25.4977 25.4977 26 24.878 26H3.12195C2.50232 26 2 25.4977 2 24.878V3.12195Z" stroke="black" stroke-width="1.2" stroke-linejoin="round"/>
<path d="M5.76667 3.1709C4.96612 5.87822 5.94678 12.7007 10.2697 15.0831C14.7728 17.7904 18.7356 19.6314 18.9757 24.8294" stroke="#42A1E7" stroke-width="1.2" stroke-linecap="round" stroke-linejoin="round" stroke-dasharray="2 2"/>
</svg>
