<svg width="48" height="48" viewBox="0 0 48 48" fill="none" xmlns="http://www.w3.org/2000/svg">
<g clip-path="url(#clip0_599_893)">
<path d="M14.625 7C16.1168 7 17.5476 7.59702 18.6025 8.65973C19.6574 9.72243 20.25 11.1638 20.25 12.6667V35.3333C20.25 36.8362 19.6574 38.2776 18.6025 39.3403C17.5476 40.403 16.1168 41 14.625 41C13.1332 41 11.7024 40.403 10.6475 39.3403C9.59263 38.2776 9 36.8362 9 35.3333V12.6667C9 11.1638 9.59263 9.72243 10.6475 8.65973C11.7024 7.59702 13.1332 7 14.625 7ZM33.375 7C34.8668 7 36.2976 7.59702 37.3525 8.65973C38.4074 9.72243 39 11.1638 39 12.6667V35.3333C39 36.8362 38.4074 38.2776 37.3525 39.3403C36.2976 40.403 34.8668 41 33.375 41C31.8832 41 30.4524 40.403 29.3975 39.3403C28.3426 38.2776 27.75 36.8362 27.75 35.3333V12.6667C27.75 11.1638 28.3426 9.72243 29.3975 8.65973C30.4524 7.59702 31.8832 7 33.375 7Z" fill="white"/>
</g>
<defs>
<clipPath id="clip0_599_893">
<rect width="48" height="48" fill="white"/>
</clipPath>
</defs>
</svg>
